<?xml version="1.0" encoding="iso-8859-1"?>
<!-- Generator: Adobe Illustrator 19.0.0, SVG Export Plug-In . SVG Version: 6.00 Build 0)  -->
<svg version="1.1" id="Capa_1" xmlns="http://www.w3.org/2000/svg" xmlns:xlink="http://www.w3.org/1999/xlink" x="0px" y="0px"
	 viewBox="0 0 512 512" style="enable-background:new 0 0 512 512;" xml:space="preserve">
<g>
	<g>
		<g>
			<path d="M447.02,406.313c-4.581-24.784-26.264-43.646-52.353-43.646h-85.333c-17.246,0-32.448,8.363-42.203,21.102
				l-11.195-28.781l7.909-3.164c21.156-8.458,34.823-28.656,34.823-51.438c0-10.042-2.729-19.896-7.896-28.5L182.115,90.813
				c-8.083-13.503-22.208-21.341-37.318-21.616L133.75,40.802C124.104,16.01,100.698,0,74.115,0H32C14.354,0,0,14.354,0,32
				s14.354,32,32,32h42.115l7.661,19.711c-4.97,1.815-9.283,5.12-11.745,9.852c-2.823,5.427-3.188,11.802-1,17.521l98.458,255.99
				c2.073,5.365,6.104,9.594,11.375,11.896c2.75,1.198,5.646,1.792,8.542,1.792c2.677,0,5.365-0.51,7.927-1.531l1.188-0.475
				L213.333,422v10.6C200.642,440,192,453.608,192,469.333C192,492.865,211.135,512,234.667,512
				c15.725,0,29.333-8.642,36.733-21.333h157.232C433.049,503.056,444.779,512,458.667,512s25.617-8.944,30.035-21.333h12.632
				c5.896,0,10.667-4.771,10.667-10.667C512,442.15,483.579,411.121,447.02,406.313z M309.333,384h85.333
				c13.888,0,25.617,8.944,30.035,21.333H279.298C283.716,392.944,295.445,384,309.333,384z M74.115,42.667H32
				c-5.885,0-10.667-4.781-10.667-10.667S26.115,21.333,32,21.333h42.115c17.719,0,33.323,10.677,39.76,27.198l9.458,24.313
				L102.46,78.06L93.99,56.26C90.823,48.125,82.833,42.667,74.115,42.667z M88.927,103.427l-2.262-9.138l0.003-0.001l2.28,9.129
				C88.948,103.417,88.938,103.427,88.927,103.427z M187.406,359.406l-98.448-255.99l49.177-12.292
				c10.042-2.542,20.365,1.781,25.688,10.656l108.656,181.083c3.177,5.292,4.854,11.344,4.854,17.521
				c0,14.01-8.406,26.427-21.406,31.625L187.406,359.406z M252.632,405.333h-22.897l-13.414-34.5l19.814-7.926L252.632,405.333z
				 M234.667,490.667c-11.76,0-21.333-9.573-21.333-21.333c0-11.76,9.573-21.333,21.333-21.333c11.76,0,21.333,9.573,21.333,21.333
				C256,481.094,246.427,490.667,234.667,490.667z M277.333,469.333c0-23.531-19.135-42.667-42.667-42.667h202.667
				c25.76,0,47.302,18.354,52.26,42.667H277.333z"/>
			<path d="M179.542,220.094c-2.115-5.5-8.302-8.229-13.792-6.125c-5.49,2.115-8.24,8.292-6.125,13.792l36.052,93.74
				c1.635,4.24,5.677,6.833,9.958,6.833c1.271,0,2.573-0.229,3.833-0.708c5.49-2.115,8.24-8.292,6.125-13.792L179.542,220.094z"/>
		</g>
	</g>
</g>
<g>
</g>
<g>
</g>
<g>
</g>
<g>
</g>
<g>
</g>
<g>
</g>
<g>
</g>
<g>
</g>
<g>
</g>
<g>
</g>
<g>
</g>
<g>
</g>
<g>
</g>
<g>
</g>
<g>
</g>
</svg>
